<svg xmlns="http://www.w3.org/2000/svg" width="139" height="170" fill="none" viewBox="0 0 139 170">
  <path fill="#fff" d="M69.514.442C21.98.442.468 43.164.468 70.958c0 52.585 68.996 98.6 68.996 98.6s68.996-46.014 68.997-98.6c0-27.794-21.41-70.516-68.947-70.516Zm35.743 43.907c-5.431 3.932-8.843 5.08-13.054 5.893l.075 34.834 12.979.075c-.085 6.066-.972 9.903-1.939 11.56l-23.795-.148V50.838h-16.56V77.93c0 18.61-12.097 23.208-26.629 19.603-1.266-1.995-2.267-9.186-1.938-13.725 13.582 5.246 16.235.707 16.073-10.309l-.036-20.871c-6.044-.328-11.606 4.192-16.782 12.606l.596-15.887c6.089-6.872 14.748-10.48 24.466-10.667l27.971-.148c6.747-.057 10.797-3.49 13.576-5.818 3.667 2.71 5.23 6.649 4.997 11.636Z"/>
</svg>
